<?xml version="1.0" encoding="iso-8859-1"?>
<!-- Uploaded to: SVG Repo, www.svgrepo.com, Generator: SVG Repo Mixer Tools -->
<svg version="1.1" id="Layer_1" xmlns="http://www.w3.org/2000/svg" xmlns:xlink="http://www.w3.org/1999/xlink" 
	 viewBox="0 0 511.999 511.999" xml:space="preserve">
<g>
	<path style="fill:#06344C;" d="M350.952,8.258H161.045c-19.07,0-34.529,15.459-34.529,34.529l129.482,22.022l129.482-22.022
		C385.481,23.717,370.022,8.258,350.952,8.258z"/>
	<path style="fill:#06344C;" d="M126.517,469.213c0,19.07,15.459,34.529,34.529,34.529h189.907c19.07,0,34.529-15.459,34.529-34.529
		l-129.482-22.022L126.517,469.213z"/>
</g>
<rect x="126.512" y="42.787" style="fill:#0299D1;" width="258.962" height="426.424"/>
<path style="fill:#021729;" d="M350.952,0H161.045c-23.593,0-42.786,19.195-42.786,42.787v426.426
	c0,23.593,19.194,42.787,42.786,42.787h189.908c23.593,0,42.786-19.195,42.786-42.787V42.787C393.739,19.195,374.545,0,350.952,0z
	 M134.775,460.955V51.045h242.447v409.909H134.775V460.955z M161.045,16.516h189.908c11.6,0,21.462,7.562,24.933,18.012H136.113
	C139.583,24.078,149.445,16.516,161.045,16.516z M350.952,495.484H161.045c-11.6,0-21.462-7.562-24.933-18.013h239.773
	C372.415,487.922,362.553,495.484,350.952,495.484z"/>
</svg>