<?xml version="1.0" encoding="iso-8859-1"?>
<!-- Uploaded to: SVG Repo, www.svgrepo.com, Generator: SVG Repo Mixer Tools -->
<svg height="800px" width="800px" version="1.1" id="Layer_1" xmlns="http://www.w3.org/2000/svg" xmlns:xlink="http://www.w3.org/1999/xlink" 
	 viewBox="0 0 503.607 503.607" xml:space="preserve">
<g transform="translate(1 1)">
	<g>
		<polygon style="fill:#FFE100;" points="435.459,7.393 443.852,208.836 410.279,208.836 418.672,7.393 		"/>
		<polygon style="fill:#FFE100;" points="401.885,317.951 452.246,317.951 452.246,208.836 401.885,208.836 		"/>
		<path style="fill:#FFE100;" d="M24.18,317.951c-9.233,0-16.787,7.554-16.787,16.787v117.508c0,9.233,7.554,16.787,16.787,16.787
			h453.246c9.233,0,16.787-7.554,16.787-16.787V334.738c0-9.233-7.554-16.787-16.787-16.787H24.18z"/>
		<polygon style="fill:#FFE100;" points="49.361,494.213 116.508,494.213 116.508,469.033 49.361,469.033 		"/>
		<polygon style="fill:#FFE100;" points="385.098,494.213 452.246,494.213 452.246,469.033 385.098,469.033 		"/>
	</g>
	<path style="fill:#63D3FD;" d="M418.672,469.033H82.934v-67.148c0-9.233,7.554-16.787,16.787-16.787h302.164
		c9.233,0,16.787,7.554,16.787,16.787V469.033z"/>
	<path style="fill:#3DB9F9;" d="M401.885,385.098h-25.18c9.233,0,16.787,7.554,16.787,16.787v67.148h25.18v-67.148
		C418.672,392.652,411.118,385.098,401.885,385.098"/>
	<path style="fill:#FFA800;" d="M477.426,452.246V334.738c0-9.233-7.554-16.787-16.787-16.787h16.787
		c9.233,0,16.787,7.554,16.787,16.787v117.508c0,9.233-7.554,16.787-16.787,16.787h-16.787
		C469.872,469.033,477.426,461.479,477.426,452.246"/>
	<path style="fill:#FFFFFF;" d="M24.18,452.246V334.738c0-9.233,7.554-16.787,16.787-16.787H24.18
		c-9.233,0-16.787,7.554-16.787,16.787v117.508c0,9.233,7.554,16.787,16.787,16.787h16.787
		C31.734,469.033,24.18,461.479,24.18,452.246"/>
	<path d="M477.426,477.426H24.18C9.911,477.426-1,466.515-1,452.246V334.738c0-14.269,10.911-25.18,25.18-25.18h453.246
		c14.269,0,25.18,10.911,25.18,25.18v117.508C502.607,466.515,491.695,477.426,477.426,477.426z M24.18,326.344
		c-5.036,0-8.393,3.357-8.393,8.393v117.508c0,5.036,3.357,8.393,8.393,8.393h453.246c5.036,0,8.393-3.357,8.393-8.393V334.738
		c0-5.036-3.357-8.393-8.393-8.393H24.18z"/>
	<path d="M443.852,217.229L443.852,217.229h-33.574c-2.518,0-4.197-0.839-5.875-2.518c-1.679-1.679-2.518-4.197-2.518-5.875
		l8.393-201.443c0-4.197,4.197-8.393,8.393-8.393h16.787c4.197,0,8.393,3.357,8.393,8.393l8.393,199.764c0,0.839,0,1.679,0,1.679
		C452.246,213.033,448.888,217.229,443.852,217.229z M418.672,200.443h16.787l-8.393-184.656l0,0L418.672,200.443z"/>
	<path d="M452.246,250.803h-50.361c-5.036,0-8.393-3.357-8.393-8.393s3.357-8.393,8.393-8.393h50.361
		c5.036,0,8.393,3.357,8.393,8.393S457.282,250.803,452.246,250.803z"/>
	<path d="M452.246,284.377h-50.361c-5.036,0-8.393-3.357-8.393-8.393c0-5.036,3.357-8.393,8.393-8.393h50.361
		c5.036,0,8.393,3.357,8.393,8.393S457.282,284.377,452.246,284.377z"/>
	<path d="M116.508,502.607H49.361c-5.036,0-8.393-3.357-8.393-8.393v-25.18c0-5.036,3.357-8.393,8.393-8.393h67.148
		c5.036,0,8.393,3.357,8.393,8.393v25.18C124.902,499.249,121.544,502.607,116.508,502.607z M57.754,485.82h50.361v-8.393H57.754
		V485.82z"/>
	<path d="M452.246,502.607h-67.148c-5.036,0-8.393-3.357-8.393-8.393v-25.18c0-5.036,3.357-8.393,8.393-8.393h67.148
		c5.036,0,8.393,3.357,8.393,8.393v25.18C460.639,499.249,457.282,502.607,452.246,502.607z M393.492,485.82h50.361v-8.393h-50.361
		V485.82z"/>
	<path d="M418.672,477.426H82.934c-5.036,0-8.393-3.357-8.393-8.393v-67.148c0-14.269,10.911-25.18,25.18-25.18h302.164
		c14.269,0,25.18,10.911,25.18,25.18v67.148C427.066,474.069,423.708,477.426,418.672,477.426z M91.328,460.639h318.951v-58.754
		c0-5.036-3.357-8.393-8.393-8.393H99.721c-5.036,0-8.393,3.357-8.393,8.393V460.639z"/>
	<path d="M452.246,326.344h-50.361c-5.036,0-8.393-3.357-8.393-8.393V208.836c0-5.036,3.357-8.393,8.393-8.393h50.361
		c5.036,0,8.393,3.357,8.393,8.393v109.115C460.639,322.987,457.282,326.344,452.246,326.344z M410.279,309.557h33.574v-92.328
		h-33.574V309.557z"/>
	<path d="M57.754,355.721c0-6.715-5.875-12.59-12.59-12.59s-12.59,5.875-12.59,12.59s5.875,12.59,12.59,12.59
		S57.754,362.436,57.754,355.721"/>
	<path d="M208.836,443.852c-5.036,0-8.393-3.357-8.393-8.393v-16.787c0-5.036,3.357-8.393,8.393-8.393
		c5.036,0,8.393,3.357,8.393,8.393v16.787C217.229,440.495,213.872,443.852,208.836,443.852z"/>
	<path d="M124.902,443.852c-5.036,0-8.393-3.357-8.393-8.393v-16.787c0-5.036,3.357-8.393,8.393-8.393
		c5.036,0,8.393,3.357,8.393,8.393v16.787C133.295,440.495,129.938,443.852,124.902,443.852z"/>
	<path d="M292.77,443.852c-5.036,0-8.393-3.357-8.393-8.393v-16.787c0-5.036,3.357-8.393,8.393-8.393s8.393,3.357,8.393,8.393
		v16.787C301.164,440.495,297.807,443.852,292.77,443.852z"/>
	<path d="M376.705,443.852c-5.036,0-8.393-3.357-8.393-8.393v-16.787c0-5.036,3.357-8.393,8.393-8.393s8.393,3.357,8.393,8.393
		v16.787C385.098,440.495,381.741,443.852,376.705,443.852z"/>
</g>
</svg>