<?xml version="1.0" encoding="iso-8859-1"?>
<!-- Uploaded to: SVG Repo, www.svgrepo.com, Generator: SVG Repo Mixer Tools -->
<svg version="1.1" id="Layer_1" xmlns="http://www.w3.org/2000/svg" xmlns:xlink="http://www.w3.org/1999/xlink" 
	 viewBox="0 0 512 512" xml:space="preserve">
<path style="fill:#8E959F;" d="M417.937,93.528c0-13.851-11.268-25.119-25.119-25.119H119.182
	c-13.851,0-25.119,11.268-25.119,25.119v93.707h323.875V93.528z"/>
<path style="fill:#68727E;" d="M392.818,68.409H119.182c-0.18,0-0.356,0.01-0.534,0.014v118.812h274.171V68.409z"/>
<path style="fill:#F6F6F7;" d="M383.733,8.017c0-4.427-3.588-8.017-8.017-8.017H136.284c-4.428,0-8.017,3.589-8.017,8.017v179.218
	h255.466V8.017z"/>
<path style="fill:#ECEDEF;" d="M173.35,0h-37.066c-4.428,0-8.017,3.589-8.017,8.017v179.218h167.219L173.35,0z"/>
<path style="fill:#8E959F;" d="M469.779,179.574H42.221C18.941,179.574,0,198.515,0,221.795v205.228
	c0,23.28,18.941,42.221,42.221,42.221h427.557c23.28,0,42.221-18.941,42.221-42.221V221.795
	C512,198.515,493.059,179.574,469.779,179.574z"/>
<g>
	<rect y="314.789" style="fill:#68727E;" width="512" height="35.273"/>
	<path style="fill:#68727E;" d="M409.921,384.802H102.079c-4.427,0-8.017,3.589-8.017,8.017v76.426h323.875v-76.426
		C417.937,388.391,414.348,384.802,409.921,384.802z"/>
</g>
<path style="fill:#509FE8;" d="M469.779,179.574H42.221C18.903,179.574,0,198.477,0,221.795v110.986h512V221.795
	C512,198.477,493.097,179.574,469.779,179.574z"/>
<path style="fill:#68727E;" d="M16.568,427.023V221.795c0-23.281,18.941-42.221,42.221-42.221H42.221
	C18.941,179.574,0,198.515,0,221.795v205.228c0,23.28,18.941,42.221,42.221,42.221h16.568
	C35.509,469.244,16.568,450.303,16.568,427.023z"/>
<path style="fill:#4D8CCF;" d="M58.789,179.574H42.221C18.903,179.574,0,198.477,0,221.795v110.986h16.568V221.795
	C16.568,198.477,35.471,179.574,58.789,179.574z"/>
<path style="fill:#55606E;" d="M417.937,392.818c0-4.427-3.589-8.017-8.017-8.017H102.079c-4.427,0-8.017,3.589-8.017,8.017v17.637
	h323.875V392.818z"/>
<path style="fill:#ECEDEF;" d="M383.733,384.802H128.267v119.182c0,4.427,3.589,8.017,8.017,8.017h239.432
	c4.427,0,8.017-3.589,8.017-8.017V384.802z"/>
<rect x="128.267" y="384.802" style="fill:#D9DCDF;" width="255.466" height="25.653"/>
<path style="fill:#DF7A6E;" d="M452.676,230.881c-13.851,0-25.119,11.268-25.119,25.119c0,13.851,11.268,25.119,25.119,25.119
	s25.119-11.268,25.119-25.119C477.795,242.149,466.527,230.881,452.676,230.881z"/>
<path style="fill:#FF8C78;" d="M452.676,238.898c-9.43,0-17.102,7.673-17.102,17.102s7.673,17.102,17.102,17.102
	s17.102-7.673,17.102-17.102S462.106,238.898,452.676,238.898z"/>
<path style="fill:#AFCA62;" d="M392.818,230.881c-13.851,0-25.119,11.268-25.119,25.119c0,13.851,11.268,25.119,25.119,25.119
	c13.851,0,25.119-11.268,25.119-25.119C417.937,242.149,406.669,230.881,392.818,230.881z"/>
<path style="fill:#C4DF64;" d="M392.818,238.898c-9.43,0-17.102,7.673-17.102,17.102s7.673,17.102,17.102,17.102
	c9.43,0,17.102-7.673,17.102-17.102S402.248,238.898,392.818,238.898z"/>
<g>
	<path style="fill:#B3B9BF;" d="M341.511,435.04H170.489c-4.428,0-8.017-3.589-8.017-8.017c0-4.427,3.588-8.017,8.017-8.017h171.023
		c4.428,0,8.017,3.589,8.017,8.017C349.528,431.45,345.94,435.04,341.511,435.04z"/>
	<path style="fill:#B3B9BF;" d="M298.756,469.244H170.489c-4.428,0-8.017-3.589-8.017-8.017s3.588-8.017,8.017-8.017h128.267
		c4.428,0,8.017,3.589,8.017,8.017S303.184,469.244,298.756,469.244z"/>
</g>
<g>
	<path style="fill:#4D8CCF;" d="M221.795,246.914H102.079c-4.428,0-8.017-3.589-8.017-8.017s3.588-8.017,8.017-8.017h119.716
		c4.428,0,8.017,3.589,8.017,8.017S226.224,246.914,221.795,246.914z"/>
	<path style="fill:#4D8CCF;" d="M264.551,246.914h-17.102c-4.428,0-8.017-3.589-8.017-8.017s3.588-8.017,8.017-8.017h17.102
		c4.428,0,8.017,3.589,8.017,8.017S268.98,246.914,264.551,246.914z"/>
	<path style="fill:#4D8CCF;" d="M76.426,246.914H59.324c-4.428,0-8.017-3.589-8.017-8.017s3.588-8.017,8.017-8.017h17.102
		c4.428,0,8.017,3.589,8.017,8.017S80.854,246.914,76.426,246.914z"/>
	<path style="fill:#4D8CCF;" d="M264.551,281.119H59.324c-4.428,0-8.017-3.589-8.017-8.017c0-4.427,3.588-8.017,8.017-8.017h205.228
		c4.428,0,8.017,3.589,8.017,8.017C272.568,277.53,268.98,281.119,264.551,281.119z"/>
</g>
</svg>